<svg width="21" height="15" viewBox="0 0 21 15" xmlns="http://www.w3.org/2000/svg"><title>Shape</title><path d="M17.61 6.828h-2.683l.731-3.383h2.577c1.67 0 2.067.822 2.067 1.473 0 .92-.595 1.91-2.693 1.91zm1.693 2.91c0 .92-.595 1.91-2.692 1.91H13.93l.731-3.385h2.574c1.671 0 2.07.826 2.07 1.474zM11.365 3.8h-2.68L9.418.418h2.571c1.674 0 2.072.822 2.072 1.472 0 .92-.597 1.91-2.695 1.91zm1.762 3.181c0 .92-.594 1.91-2.692 1.91h-2.68l.73-3.38h2.575c1.672 0 2.067.82 2.067 1.47zm-.995 5.304c0 .922-.595 1.91-2.687 1.91H6.759l.73-3.385h2.577c1.67 0 2.066.824 2.066 1.475zM4.189 3.8H1.51L2.238.418h2.576c1.671 0 2.07.822 2.07 1.472 0 .92-.598 1.91-2.695 1.91zm1.766 3.181c0 .92-.599 1.91-2.691 1.91H.578l.732-3.38h2.574c1.672 0 2.07.82 2.07 1.47z" fill="#173330" fill-rule="nonzero"/></svg>