<svg width="18" height="19" viewBox="0 0 18 19" xmlns="http://www.w3.org/2000/svg"><title>Fill 1</title><path d="M13.12 10.835c-.225-.112-1.325-.654-1.53-.728-.206-.075-.355-.112-.504.112-.15.224-.578.728-.709.877-.13.15-.261.169-.485.056-.224-.112-.945-.348-1.8-1.11-.666-.594-1.115-1.327-1.246-1.552-.13-.224-.013-.345.099-.456.1-.1.224-.262.335-.393.112-.13.15-.224.224-.373.075-.15.038-.28-.018-.392-.056-.112-.504-1.214-.69-1.663-.182-.436-.367-.377-.504-.384a8.979 8.979 0 0 0-.43-.008.823.823 0 0 0-.596.28c-.205.225-.784.766-.784 1.868s.802 2.166.914 2.316c.112.15 1.579 2.41 3.825 3.38.534.23.95.368 1.276.472.536.17 1.024.146 1.41.088.43-.064 1.324-.541 1.51-1.064.187-.523.187-.971.131-1.065-.056-.093-.205-.149-.429-.261m-4.084 5.577h-.003a7.436 7.436 0 0 1-3.79-1.038l-.272-.161-2.819.739.752-2.748-.177-.282A7.428 7.428 0 0 1 1.588 8.96c.001-4.105 3.342-7.446 7.45-7.446 1.989 0 3.858.776 5.264 2.184a7.402 7.402 0 0 1 2.18 5.268c-.002 4.106-3.343 7.447-7.447 7.447m6.337-13.784A8.901 8.901 0 0 0 9.035 0C4.096 0 .077 4.019.075 8.959c0 1.579.412 3.12 1.196 4.479L0 18.08l4.75-1.246a8.951 8.951 0 0 0 4.281 1.09h.004c4.938 0 8.957-4.02 8.96-8.96 0-2.393-.931-4.644-2.623-6.337" fill="#25D366" fill-rule="evenodd"/></svg>