<svg width="17" height="18" viewBox="0 0 17 18" xmlns="http://www.w3.org/2000/svg"><title>Group</title><g fill="#7B519D" fill-rule="evenodd"><path d="M15.659 12.49c-.527-.424-1.089-.805-1.643-1.193-1.104-.776-2.114-.836-2.938.412-.462.7-1.11.73-1.787.423-1.867-.846-3.309-2.15-4.153-4.048-.374-.84-.369-1.592.505-2.186.463-.314.93-.686.892-1.372-.049-.895-2.221-3.885-3.079-4.2a1.56 1.56 0 0 0-1.07 0C.375 1.001-.458 2.655.34 4.614c2.38 5.844 6.57 9.912 12.336 12.395.329.142.694.198.879.249 1.313.013 2.85-1.252 3.295-2.507.427-1.208-.476-1.687-1.191-2.263zM9.193.924c4.216.648 6.16 2.653 6.697 6.9.05.391-.096.981.463.992.585.011.444-.57.449-.963.05-3.999-3.438-7.706-7.487-7.843-.306.044-.938-.21-.977.474-.027.462.506.386.855.44z"/><path d="M10.018 2.09c-.406-.05-.941-.24-1.036.322-.099.59.498.53.881.616 2.604.582 3.51 1.53 3.94 4.113.062.376-.063.962.577.865.475-.072.303-.574.343-.868.02-2.48-2.104-4.736-4.705-5.049z"/><path d="M10.257 4.117c-.271.007-.537.036-.636.325-.15.433.165.536.485.587 1.068.171 1.63.801 1.737 1.866.028.29.212.524.491.49.387-.045.422-.39.41-.717.02-1.197-1.333-2.58-2.487-2.551z"/></g></svg>